<svg id="visual" viewBox="0 0 540 960" width="540" height="960" xmlns="http://www.w3.org/2000/svg" xmlns:xlink="http://www.w3.org/1999/xlink" version="1.1"><path d="M474 960L474 880C474 800 474 640 477.7 480C481.3 320 488.7 160 492.3 80L496 0L540 0L540 80C540 160 540 320 540 480C540 640 540 800 540 880L540 960Z" fill="#73046d"></path><path d="M426 960L425 880C424 800 422 640 421 480C420 320 420 160 420 80L420 0L497 0L493.3 80C489.7 160 482.3 320 478.7 480C475 640 475 800 475 880L475 960Z" fill="#5a0255"></path><path d="M328 960L332.5 880C337 800 346 640 347.8 480C349.7 320 344.3 160 341.7 80L339 0L421 0L421 80C421 160 421 320 422 480C423 640 425 800 426 880L427 960Z" fill="#42003e"></path><path d="M161 960L164.7 880C168.3 800 175.7 640 186.5 480C197.3 320 211.7 160 218.8 80L226 0L340 0L342.7 80C345.3 160 350.7 320 348.8 480C347 640 338 800 333.5 880L329 960Z" fill="#330131"></path><path d="M53 960L53 880C53 800 53 640 53.8 480C54.7 320 56.3 160 57.2 80L58 0L227 0L219.8 80C212.7 160 198.3 320 187.5 480C176.7 640 169.3 800 165.7 880L162 960Z" fill="#2e042c"></path><path d="M0 960L0 880C0 800 0 640 0 480C0 320 0 160 0 80L0 0L59 0L58.2 80C57.3 160 55.7 320 54.8 480C54 640 54 800 54 880L54 960Z" fill="#290527"></path></svg>