<svg width="2000" height="1333" xmlns="http://www.w3.org/2000/svg">
    <path fill="none" d="M0 0h2000v1333H0z"/>
    <path d="M0 444h0c60.22 17.386 120.44 34.772 174 13s100.461-82.703 154-76c53.539 6.703 113.715 81.04 172 105 58.285 23.96 114.679-2.454 172 0s115.57 33.776 173 24c57.43-9.776 114.041-60.649 163-73 48.959-12.351 90.264 13.82 147 15 56.736 1.18 128.902-22.628 190-21 61.098 1.628 111.13 28.694 164 27 52.87-1.694 108.58-32.148 165-28 56.42 4.148 113.548 42.9 168 51 54.452 8.1 106.226-14.45 198-37" fill="none" stroke="#6b7579" stroke-width="28" stroke-linecap="round"/>
    <!-- <path d="M0 888h0c51.14 19.841 102.282 39.682 160 55 57.718 15.318 122.015 26.113 176 11s97.66-56.134 153-80 122.347-30.578 183-15c60.653 15.578 114.952 53.448 168 71s104.847 14.788 160 10c55.153-4.788 113.662-11.601 168-35 54.338-23.399 104.505-63.383 157-77 52.495-13.617 107.318-.866 164 17s115.222 40.849 174 39c58.778-1.849 117.794-28.528 174-32 56.206-3.472 109.603 16.264 203 36" fill="none" stroke="#9aa1a4" stroke-width="20" stroke-linecap="round"/> -->
</svg>