<svg width="2000" height="1000" xmlns="http://www.w3.org/2000/svg"><path fill="none" d="M0 0h2000v1000H0z"/><path d="M0 125h0c45.819-22.493 91.637-44.986 138-34 46.363 10.986 93.27 55.451 137 54 43.73-1.451 84.285-48.82 128-54s90.59 31.826 136 52 89.355 23.515 132 16c42.645-7.515 83.991-25.888 131-32 47.009-6.112 99.681.035 141-3s71.283-15.253 114-15c42.717.253 98.185 12.978 147 11 48.815-1.978 90.976-18.66 127-19 36.024-.34 65.911 15.662 115 31s117.38 30.013 165 19c47.62-11.013 74.568-47.715 110-56 35.432-8.285 79.347 11.846 135 12 55.653.154 123.044-19.67 149-20 25.956-.33 10.478 18.835 35 38" fill="none" stroke="#ecedb4" stroke-width="20" stroke-linecap="round"/><path d="M0 250h0c41.692 4.005 83.383 8.01 131 14 47.617 5.99 101.158 13.962 146 11 44.842-2.962 80.984-16.86 123-14 42.016 2.86 89.906 22.475 133 19 43.094-3.475 81.39-30.04 124-42s89.532-9.316 140-10c50.468-.684 104.482-4.697 154-6s94.54.103 132 12c37.46 11.897 67.355 34.286 104 34 36.645-.286 80.04-23.246 128-25 47.96-1.754 100.483 17.698 151 23 50.517 5.302 99.028-3.546 146-17 46.972-13.454 92.405-31.513 132-28 39.595 3.513 73.353 28.6 124 34 50.647 5.4 118.185-8.886 143-13 24.815-4.114 6.908 1.943 29 8" fill="none" stroke="#eff0bd" stroke-width="20" stroke-linecap="round"/><path d="M0 375h0c40.274-3.611 80.549-7.223 122-2 41.451 5.223 84.079 19.28 133 27 48.921 7.72 104.136 9.101 152 8 47.864-1.101 88.378-4.685 133-10s93.35-12.36 133-8c39.65 4.36 70.219 20.126 109 14 38.781-6.126 85.775-34.142 134-52 48.225-17.858 97.683-25.557 150-14 52.317 11.557 107.492 42.369 149 45 41.508 2.631 69.347-22.92 112-18 42.653 4.92 100.118 40.309 146 43 45.882 2.691 80.181-27.315 122-35 41.819-7.685 91.158 6.95 130 17s67.188 15.513 122 8 136.089-28.004 166-34c29.911-5.996 8.455 2.502 27 11" fill="none" stroke="#f3f4d1" stroke-width="20" stroke-linecap="round"/><path d="M0 500h0c51.899-6.744 103.797-13.488 144-17 40.203-3.512 68.71-3.793 107-11 38.29-7.207 86.364-21.341 139-8 52.636 13.341 109.834 54.157 160 56 50.166 1.843 93.299-35.286 127-51 33.701-15.714 57.97-10.011 105 7s116.818 45.331 170 45c53.182-.331 89.757-29.313 125-35 35.243-5.687 69.154 11.92 113 16 43.846 4.08 97.628-5.368 144 1s85.336 28.55 131 30c45.664 1.45 98.029-17.835 144-18 45.971-.165 85.549 18.79 125 10 39.451-8.79 78.775-45.328 133-61 54.225-15.672 123.35-10.478 148-1 24.65 9.478 4.825 23.239 25 37" fill="none" stroke="#e4e58f" stroke-width="20" stroke-linecap="round"/><path d="M0 625h0c37.626-25.946 75.252-51.893 125-37 49.748 14.893 111.62 70.625 154 73 42.38 2.375 65.27-48.606 106-64 40.73-15.394 99.299 4.798 143 15 43.701 10.202 72.534 10.414 123 3 50.466-7.414 122.564-22.454 165-18 42.436 4.454 55.211 28.4 97 45s112.59 25.852 159 17 68.426-35.81 108-52c39.574-16.19 96.705-21.613 148-10s96.754 40.264 145 40c48.246-.264 99.279-29.44 142-35 42.721-5.56 77.132 12.5 117 12 39.868-.5 85.195-19.558 135-24 49.805-4.442 104.087 5.73 127 14 22.913 8.27 14.456 14.635 46 21" fill="none" stroke="#d4d64e" stroke-width="20" stroke-linecap="round"/><path d="M0 750h0c36.567-16.87 73.135-33.741 122-30 48.865 3.741 110.028 28.094 161 35 50.972 6.906 91.754-3.633 126-9 34.246-5.367 61.956-5.561 111 3s119.421 25.877 164 29c44.579 3.123 63.358-7.948 100-10 36.642-2.052 91.145 4.914 144-3 52.855-7.914 104.062-30.708 149-46 44.938-15.292 83.608-23.083 128-6 44.392 17.083 94.508 59.04 135 60 40.492.96 71.36-39.074 119-52 47.64-12.926 112.05 1.257 160 10s79.44 12.044 114 19c34.56 6.956 72.19 17.565 121 21 48.81 3.435 108.803-.304 135-5 26.197-4.696 18.598-10.348 51-16" fill="none" stroke="#d3d54a" stroke-width="20" stroke-linecap="round"/><path d="M0 875h0c53.699-2.622 107.397-5.244 147-3 39.603 2.244 65.11 9.353 106 18s97.166 18.833 150 16c52.834-2.833 102.227-18.684 145-23 42.773-4.316 78.928 2.903 116 6s75.062 2.07 120-5 96.823-20.186 142-13c45.177 7.186 83.647 34.673 125 33 41.353-1.673 85.59-32.507 139-40 53.41-7.493 115.99 8.356 159 14 43.01 5.644 66.446 1.084 109 4s104.226 13.309 154 4 87.65-38.32 130-34c42.35 4.32 89.17 41.97 140 47 50.83 5.03 105.665-22.563 126-32 20.335-9.437 6.167-.718 32 8" fill="none" stroke="#cdd033" stroke-width="20" stroke-linecap="round"/></svg>